# xmcd
#
# Track frame offsets:
#	150
#	15676
#	36076
#	55208
#	75826
#	93421
#	112378
#	130399
#	143540
#	161734
#	181007
#	198059
#	213360
#	227595
#
# Disc length: 3270 seconds
#
# Revision: 1
# Processed by: cddbd v1.4PL0 Copyright (c) Steve Scherf et al.
# Submitted via: audiograbber 1.80.04
#
DISCID=b00cc40e
DTITLE=Joe - Better Days
DYEAR=2001
DGENRE=R&B
TTITLE0=Let's Stay Home Tonight
TTITLE1=Better Days
TTITLE2=What If A Woman
TTITLE3=Alone
TTITLE4=Isn't This The World
TTITLE5=Ghetto Child featuring Shaggy
TTITLE6=I Like Sexy Girls
TTITLE7=Here She Comes
TTITLE8=Lover's prayer
TTITLE9=Changed man
TTITLE10=I Understand
TTITLE11=She used 2 Luv Me
TTITLE12=World Of Girls
TTITLE13=Let's Stay Home Tonight Remix featuring Petey Pablo
EXTD=
EXTT0=
EXTT1=
EXTT2=
EXTT3=
EXTT4=
EXTT5=
EXTT6=
EXTT7=
EXTT8=
EXTT9=
EXTT10=
EXTT11=
EXTT12=
EXTT13=
PLAYORDER=
